<svg xmlns="http://www.w3.org/2000/svg" xmlns:xlink="http://www.w3.org/1999/xlink" version="1.1" id="Слой_1" x="0px" y="0px" width='92' height="16" viewBox="0 0 182 33" style="enable-background:new 0 0 182 33;" xml:space="preserve">
<style type="text/css">
	.st0{clip-path:url(#SVGID_00000098208459622133155290000016765282223151737516_);}
	.st1{fill-rule:evenodd;clip-rule:evenodd;fill:#33CC66;}
	.st2{fill:#FFFFFF;}
</style>
<g>
	<defs>
		<rect id="SVGID_1_" y="0.5" width="181.8" height="33"/>
	</defs>
	<clipPath id="SVGID_00000110453547008075150020000001429278426005806014_">
		<use xlink:href="#SVGID_1_" style="overflow:visible;"/>
	</clipPath>
	<g style="clip-path:url(#SVGID_00000110453547008075150020000001429278426005806014_);">
		<path class="st1" d="M1.5,15.1h7.9c1.4,0,2.7-0.6,3.7-1.5c0.9-0.9,1.5-2.2,1.5-3.7V2V0.5H16h14.6h1.5V2v14.6v1.5h-1.5h-7.9    c-1.4,0-2.7,0.6-3.7,1.5c-0.9,0.9-1.5,2.2-1.5,3.7v7.9v1.5h-1.5H1.5H0v-1.4V16.7v-1.5L1.5,15.1L1.5,15.1z M9.4,18.2H3v11.6h11.6    v-6.4c0-2.3,0.9-4.3,2.4-5.8c1.5-1.5,3.6-2.4,5.7-2.4h6.4V3.5H17.6v6.4c0,2.3-0.9,4.3-2.4,5.8C13.8,17.3,11.7,18.2,9.4,18.2z"/>
		<path class="st1" d="M1.5,15.1h7.9c1.4,0,2.7-0.6,3.7-1.5c0.9-0.9,1.5-2.2,1.5-3.7V2V0.5H16h14.6h1.5V2v14.6v1.5h-1.5h-7.9    c-1.4,0-2.7,0.6-3.7,1.5c-0.9,0.9-1.5,2.2-1.5,3.7v7.9v1.5h-1.5H1.5H0v-1.4V16.7v-1.5L1.5,15.1L1.5,15.1z M9.4,18.2H3v11.6h11.6    v-6.4c0-2.3,0.9-4.3,2.4-5.8c1.5-1.5,3.6-2.4,5.7-2.4h6.4V3.5H17.6v6.4c0,2.3-0.9,4.3-2.4,5.8C13.8,17.3,11.7,18.2,9.4,18.2z"/>
	</g>
	<g style="clip-path:url(#SVGID_00000110453547008075150020000001429278426005806014_);">
		<text transform="matrix(1 0 0 1 43.459 53.0839)" style="font-family:'BambinoNew-Bold'; font-size:13.1851px;">Vidorium</text>
	</g>
</g>
<g>
	<path class="st2" d="M53.7,27.8h-3.9L41.2,5.3h4.2l6.3,16.5L58,5.3h4.2L53.7,27.8z"/>
	<path class="st2" d="M68.8,9.3h-3.9V5.3h3.9V9.3z M68.8,27.8h-3.9V10.9h3.9V27.8z"/>
	<path class="st2" d="M85.6,12V5.3h3.9v22.5h-3.9v-1.3c-0.4,0.6-1.1,1.1-2,1.5c-0.9,0.4-1.9,0.6-3,0.6c-2.4,0-4.4-0.8-6.1-2.7   c-1.7-1.8-2.5-4.1-2.5-6.7c0-2.7,0.8-4.9,2.4-6.6c1.6-1.7,3.7-2.6,6.3-2.6c0.9,0,1.9,0.2,2.8,0.6C84.5,11.1,85.2,11.6,85.6,12z    M75.9,19.4c0,1.4,0.4,2.6,1.3,3.7c0.9,1.1,2.1,1.6,3.5,1.6c1.2,0,2.3-0.5,3.3-1.5c1-1,1.5-2.3,1.5-3.8c0-1.6-0.5-2.9-1.4-3.9   c-0.9-1-2.1-1.5-3.4-1.5c-1.5,0-2.7,0.5-3.5,1.6C76.4,16.6,75.9,17.9,75.9,19.4z"/>
	<path class="st2" d="M111.2,19.4c0,2.5-0.9,4.7-2.7,6.6c-1.9,1.9-4.1,2.8-6.6,2.7c-2.5,0-4.7-0.9-6.6-2.7c-1.9-1.9-2.8-4-2.7-6.6   c0-2.5,0.9-4.7,2.7-6.6c1.9-1.9,4-2.8,6.6-2.7c2.5,0,4.7,0.9,6.6,2.7C110.3,14.7,111.2,16.9,111.2,19.4z M98.1,15.6   c-1.1,1.1-1.6,2.3-1.6,3.8s0.5,2.7,1.6,3.8c1.1,1.1,2.3,1.6,3.8,1.6c1.5,0,2.7-0.5,3.8-1.6c1.1-1.1,1.6-2.3,1.6-3.8   s-0.5-2.7-1.6-3.8c-1-1.1-2.3-1.6-3.8-1.6C100.4,14,99.1,14.6,98.1,15.6z"/>
	<path class="st2" d="M125.8,11.2l-1.9,3.9c-0.9-0.6-1.8-1-2.8-1c-0.9,0-1.6,0.4-2.1,1.1c-0.5,0.8-0.8,1.8-0.8,3.1v9.5h-3.9V10.9   h3.9V12c0.4-0.5,0.9-1,1.8-1.3c0.8-0.4,1.7-0.6,2.6-0.6C123.8,10.1,124.9,10.5,125.8,11.2z"/>
	<path class="st2" d="M132.3,9.3h-3.9V5.3h3.9V9.3z M132.3,27.8h-3.9V10.9h3.9V27.8z"/>
	<path class="st2" d="M136,19.5v-8.5h3.9v8.9c0,1.7,0.3,3,0.9,3.8c0.6,0.8,1.7,1.3,3.2,1.3c1.2,0,2.2-0.4,3-1.2   c0.8-0.8,1.1-1.9,1.1-3.3v-9.5h3.9v16.9h-3.9v-1.1c-0.4,0.5-1,1-1.9,1.3c-0.9,0.4-1.8,0.6-2.7,0.6c-2.6,0-4.5-0.7-5.8-2.2   S136,22.7,136,19.5z"/>
	<path class="st2" d="M182,19.3v8.5h-3.9v-8.9c0-3.4-1.3-5.1-3.8-5.1c-2.2,0-3.3,1.5-3.3,4.5v9.5H167v-8.9c0-1.6-0.3-2.8-0.8-3.7   c-0.6-0.9-1.4-1.4-2.4-1.4c-1.2,0-2.1,0.4-2.8,1.2c-0.7,0.8-1,1.9-1,3.3v9.5H156V10.9h3.9V12c0.4-0.5,1-1,1.7-1.4   c0.8-0.4,1.6-0.5,2.6-0.5c2.4,0,4.1,0.9,5.2,2.6c0.5-0.8,1.3-1.4,2.3-1.9c1-0.5,2-0.7,3-0.7C179.6,10.1,182,13.2,182,19.3z"/>
</g>
</svg>