<?xml version="1.0" encoding="utf-8"?>
<!-- Generator: Adobe Illustrator 27.5.0, SVG Export Plug-In . SVG Version: 6.00 Build 0)  -->
<svg version="1.1" id="_Слой_1" xmlns="http://www.w3.org/2000/svg" xmlns:xlink="http://www.w3.org/1999/xlink" x="0px"
	 y="0px" viewBox="0 0 182 33" width="100px" style="enable-background:new 0 0 182 33;" xml:space="preserve">
<style type="text/css">
	.st0{clip-path:url(#SVGID_00000049944179416738225060000011742769780652345735_);}
	.st1{fill-rule:evenodd;clip-rule:evenodd;fill:#33CC66;}
	.st2{fill:#FFFFFF;}
</style>
<g>
	<g>
		<defs>
			<rect id="SVGID_1_" x="0.1" y="0.4" width="181.8" height="33"/>
		</defs>
		<clipPath id="SVGID_00000119093708788217814440000000128005535723189641_">
			<use xlink:href="#SVGID_1_"  style="overflow:visible;"/>
		</clipPath>
		<g style="clip-path:url(#SVGID_00000119093708788217814440000000128005535723189641_);">
			<g>
				<path class="st1" d="M1.6,15h7.9c1.4,0,2.7-0.6,3.7-1.5c0.9-0.9,1.5-2.2,1.5-3.7V0.4h17.5V18h-9.4c-1.4,0-2.7,0.6-3.7,1.5
					c-0.9,0.9-1.5,2.2-1.5,3.7v9.4H0.1V15.1L1.6,15L1.6,15z M9.5,18.1H3.1v11.6h11.6v-6.4c0-2.3,0.9-4.3,2.4-5.8s3.6-2.4,5.7-2.4
					h6.4V3.4H17.7v6.4c0,2.3-0.9,4.3-2.4,5.8C13.9,17.2,11.8,18.1,9.5,18.1z"/>
				<path class="st1" d="M1.6,15h7.9c1.4,0,2.7-0.6,3.7-1.5c0.9-0.9,1.5-2.2,1.5-3.7V0.4h17.5V18h-9.4c-1.4,0-2.7,0.6-3.7,1.5
					c-0.9,0.9-1.5,2.2-1.5,3.7v9.4H0.1V15.1L1.6,15L1.6,15z M9.5,18.1H3.1v11.6h11.6v-6.4c0-2.3,0.9-4.3,2.4-5.8s3.6-2.4,5.7-2.4
					h6.4V3.4H17.7v6.4c0,2.3-0.9,4.3-2.4,5.8C13.9,17.2,11.8,18.1,9.5,18.1z"/>
			</g>
		</g>
	</g>
	<g>
		<path class="st2" d="M53.7,27.8h-3.9L41.2,5.2h4.2l6.3,16.6l6.3-16.6h4.2L53.7,27.8z"/>
		<path class="st2" d="M77.3,21v6.7h-3.9v-1.8c-0.5,0.9-1.3,1.5-2.4,2c-1.1,0.5-2.1,0.7-2.9,0.7c-2.3,0-4-0.7-5.3-2
			c-1-1.1-1.5-2.4-1.5-3.9c0-1.7,0.6-3.1,1.9-4.3c1.3-1.2,3-1.8,5.3-1.8c1.9,0,3.4,0.1,4.6,0.4c-0.1-1-0.5-1.8-1.3-2.4
			c-0.7-0.6-1.7-0.8-2.8-0.8c-1,0-2,0.1-3,0.4c-1,0.3-1.7,0.5-2.1,0.9l-1.7-3.2c0.9-0.6,2-1,3.4-1.4c1.4-0.4,2.5-0.5,3.4-0.5
			c1.7,0,3.1,0.3,4.1,0.8c1,0.5,1.9,1.4,2.6,2.5c0.6,0.9,1,1.9,1.2,3.1C77.2,17.6,77.3,19.1,77.3,21z M73.3,20.2
			c0-0.1-0.5-0.2-1.4-0.3C71,19.8,70,19.7,69,19.7c-1.1,0-2,0.2-2.7,0.8c-0.7,0.5-1.1,1.1-1.1,1.9c0,0.8,0.3,1.3,0.8,1.8
			c0.5,0.4,1.1,0.6,2,0.6c1.8,0,3.2-0.5,4-1.4C72.8,22.5,73.3,21.4,73.3,20.2z"/>
		<path class="st2" d="M85.1,9.1h-3.9V5.2h3.9V9.1z M85.1,27.8h-3.9V10.8h3.9V27.8z"/>
		<path class="st2" d="M100.7,11.1L98.8,15c-0.9-0.6-1.8-1-2.9-1c-0.9,0-1.6,0.4-2.1,1.1s-0.8,1.8-0.8,3.1v9.5h-3.9V10.8h3.9v1.1
			c0.4-0.5,0.9-1,1.8-1.3c0.8-0.4,1.7-0.6,2.6-0.6C98.7,10,99.8,10.4,100.7,11.1z"/>
		<path class="st2" d="M119.8,19.3c0,2.5-0.9,4.7-2.7,6.6c-1.9,1.9-4.1,2.8-6.6,2.7c-2.5,0-4.7-0.9-6.6-2.7
			c-1.9-1.9-2.8-4.1-2.7-6.6c0-2.5,0.9-4.7,2.7-6.6c1.9-1.9,4.1-2.8,6.6-2.7c2.5,0,4.7,0.9,6.6,2.7S119.9,16.8,119.8,19.3z
			 M106.7,15.5c-1.1,1.1-1.6,2.3-1.6,3.8c0,1.5,0.5,2.7,1.6,3.8c1.1,1.1,2.3,1.6,3.8,1.6c1.5,0,2.7-0.5,3.8-1.6
			c1.1-1.1,1.6-2.3,1.6-3.8c0-1.5-0.5-2.7-1.6-3.8c-1-1.1-2.3-1.6-3.8-1.6C109.1,13.9,107.8,14.5,106.7,15.5z"/>
		<path class="st2" d="M139,19.2v8.5h-3.9v-9c0-1.7-0.3-3-0.9-3.8c-0.6-0.8-1.7-1.3-3.2-1.3c-1.2,0-2.2,0.4-3,1.2
			c-0.8,0.8-1.2,1.9-1.2,3.3v9.5h-3.9V10.8h3.9v1.1c0.4-0.5,1-1,1.9-1.3c0.9-0.4,1.8-0.6,2.7-0.6c2.6,0,4.6,0.7,5.8,2.2
			S139,16,139,19.2z"/>
		<path class="st2" d="M150.9,28.6c-2.7,0-4.8-0.9-6.6-2.7c-1.7-1.8-2.6-4-2.6-6.6c0-2.6,0.8-4.8,2.6-6.6c1.8-1.8,3.9-2.7,6.4-2.7
			c2.4,0,4.5,0.8,6.2,2.6c1.7,1.8,2.5,3.9,2.5,6.4c0,0.7-0.1,1.5-0.3,2.4h-13.2c0.3,0.8,0.8,1.6,1.6,2.3c0.9,0.7,2,1,3.3,1
			c0.9,0,1.7-0.2,2.4-0.5c0.7-0.3,1.3-0.8,1.7-1.3l3.7,1.9C156.7,27.3,154.1,28.6,150.9,28.6z M150.7,13.9c-1.3,0-2.4,0.4-3.3,1.1
			c-0.9,0.7-1.4,1.6-1.6,2.7h9.5c-0.1-1.1-0.6-2-1.4-2.7C153.1,14.3,152,13.9,150.7,13.9z"/>
		<path class="st2" d="M177.3,27.8h-4.8l-3.7-5.1l-3.7,5.1h-4.8l6.1-8.5l-6.1-8.4h4.8l3.7,5l3.7-5h4.8l-6.1,8.4L177.3,27.8z"/>
	</g>
</g>
</svg>
