<svg width="93" height="17" viewBox="0 0 93 17" fill="none" xmlns="http://www.w3.org/2000/svg">
<mask id="mask0_197_19" style="mask-type:luminance" maskUnits="userSpaceOnUse" x="0" y="0" width="93" height="17">
<path d="M92.3086 0.238281H0.308594V16.2383H92.3086V0.238281Z" fill="white"/>
</mask>
<g mask="url(#mask0_197_19)">
<path fill-rule="evenodd" clip-rule="evenodd" d="M1.06767 7.31707H5.06547C5.77394 7.31707 6.43181 7.02616 6.93786 6.5898C7.3933 6.15343 7.69693 5.52313 7.69693 4.79586V0.238281H16.5528V8.77162H11.7959C11.0875 8.77162 10.4296 9.06252 9.92356 9.49889C9.46811 9.93525 9.16448 10.5656 9.16448 11.2928V15.8504H0.308594V7.36555L1.06767 7.31707ZM5.06547 8.8201H1.82675V14.4443H7.69693V11.3413C7.69693 10.2262 8.15238 9.25646 8.91145 8.52919C9.67053 7.80192 10.7332 7.36555 11.7959 7.36555H15.0347V1.69283H9.21509V4.79586C9.21509 5.91101 8.75964 6.88071 8.00056 7.60798C7.29209 8.38374 6.22939 8.8201 5.06547 8.8201Z" fill="#33CC66"/>
<path fill-rule="evenodd" clip-rule="evenodd" d="M1.06767 7.31707H5.06547C5.77394 7.31707 6.43181 7.02616 6.93786 6.5898C7.3933 6.15343 7.69693 5.52313 7.69693 4.79586V0.238281H16.5528V8.77162H11.7959C11.0875 8.77162 10.4296 9.06252 9.92356 9.49889C9.46811 9.93525 9.16448 10.5656 9.16448 11.2928V15.8504H0.308594V7.36555L1.06767 7.31707ZM5.06547 8.8201H1.82675V14.4443H7.69693V11.3413C7.69693 10.2262 8.15238 9.25646 8.91145 8.52919C9.67053 7.80192 10.7332 7.36555 11.7959 7.36555H15.0347V1.69283H9.21509V4.79586C9.21509 5.91101 8.75964 6.88071 8.00056 7.60798C7.29209 8.38374 6.22939 8.8201 5.06547 8.8201Z" fill="#33CC66"/>
</g>
<path d="M27.478 13.5046H25.4791L21.1523 2.56641H23.2778L26.4811 10.6052L29.6844 2.56641H31.7946L27.483 13.5046H27.478Z" fill="white"/>
<path d="M35.1493 4.47375H33.1504V2.55859H35.1493V4.47375ZM35.1493 13.4968H33.1504V5.29799H35.1493V13.5016V13.4968Z" fill="white"/>
<path d="M43.035 5.40659L42.0533 7.30719C41.6181 6.99204 41.1374 6.83689 40.6111 6.83689C40.1657 6.83689 39.8166 7.02113 39.5585 7.38962C39.3004 7.7581 39.1688 8.26234 39.1688 8.90234V13.5036H37.1699V5.29992H39.1688V5.83325C39.351 5.58113 39.6445 5.3678 40.0544 5.19325C40.4694 4.99931 40.8995 4.90234 41.355 4.90234C42.0078 4.90234 42.5695 5.06719 43.035 5.40174V5.40659Z" fill="white"/>
<path d="M52.7046 9.40033C52.7248 10.627 52.2643 11.6888 51.318 12.5906C50.3717 13.4924 49.2634 13.9337 47.9932 13.9143C46.7129 13.9337 45.6047 13.4924 44.6634 12.5906C43.7222 11.6888 43.2616 10.627 43.2819 9.40033C43.2616 8.18336 43.7222 7.12639 44.6634 6.21972C45.6047 5.31306 46.7129 4.87184 47.9932 4.89124C49.2634 4.87184 50.3717 5.31306 51.318 6.21972C52.2643 7.12639 52.7248 8.18821 52.7046 9.40033ZM46.0854 7.5676C45.549 8.08154 45.2859 8.6876 45.2859 9.40033C45.2859 10.1131 45.5541 10.7191 46.0854 11.2331C46.6168 11.747 47.2544 11.9991 47.9983 11.9991C48.7422 11.9991 49.3747 11.7421 49.9112 11.2331C50.4425 10.724 50.7107 10.1131 50.7107 9.40033C50.7107 8.6876 50.4476 8.08154 49.9162 7.5676C49.3899 7.05851 48.7472 6.80154 47.9983 6.80154C47.2493 6.80154 46.6218 7.05851 46.0854 7.5676Z" fill="white"/>
<path d="M62.4274 9.36686V13.4978H60.4285V9.15352C60.4285 8.32443 60.2716 7.70383 59.963 7.2917C59.6543 6.87958 59.1128 6.67595 58.3537 6.67595C57.7414 6.67595 57.2404 6.87474 56.8457 7.26746C56.451 7.66019 56.2587 8.19837 56.2587 8.87716V13.4978H54.2598V5.29898H56.2587V5.83231C56.451 5.58019 56.7647 5.36201 57.1999 5.17777C57.6402 4.99352 58.1007 4.90625 58.5865 4.90625C59.9174 4.90625 60.889 5.26019 61.5064 5.96322C62.1187 6.66625 62.4274 7.80564 62.4274 9.3717V9.36686Z" fill="white"/>
<path d="M68.4033 13.9098C67.0623 13.9098 65.954 13.4734 65.0836 12.6055C64.2132 11.7328 63.778 10.6661 63.778 9.40067C63.7578 8.15461 64.193 7.08795 65.0937 6.19582C65.9945 5.3037 67.0775 4.86734 68.3426 4.89158C69.5774 4.87219 70.6299 5.28916 71.5004 6.14249C72.3657 7.00067 72.7908 8.03825 72.7705 9.26492C72.7705 9.61885 72.7199 9.99704 72.6137 10.4043H65.9237C66.0502 10.8116 66.3235 11.1752 66.7485 11.5001C67.1837 11.8346 67.7353 11.9995 68.4134 11.9995C68.8486 11.9995 69.2484 11.9219 69.6178 11.7619C69.9873 11.6067 70.2656 11.3934 70.4579 11.1316L72.3303 12.0722C71.3688 13.2989 70.0632 13.9098 68.4134 13.9098H68.4033ZM68.3426 6.80189C67.6847 6.80189 67.1382 6.97643 66.6929 7.32067C66.2475 7.66492 65.9844 8.10128 65.8984 8.62492H70.7059C70.6654 8.08673 70.4225 7.65037 69.9771 7.31098C69.5318 6.97158 68.9903 6.80189 68.3426 6.80189Z" fill="white"/>
<path d="M78.5338 13.9104C77.2535 13.9298 76.1402 13.4885 75.1939 12.5867C74.2475 11.6849 73.787 10.6231 73.8073 9.39642C73.787 8.17945 74.2475 7.12248 75.1939 6.21582C76.1402 5.30915 77.2535 4.86794 78.5338 4.88733C80.0772 4.88733 81.2918 5.50794 82.1824 6.754L80.5175 7.74309C80.0519 7.11763 79.4143 6.80248 78.5996 6.80248C77.8304 6.80248 77.1675 7.0546 76.626 7.554C76.0795 8.05339 75.8112 8.66915 75.8112 9.40127C75.8112 10.1334 76.0845 10.7346 76.626 11.2388C77.1725 11.7431 77.8304 12.0001 78.5996 12.0001C79.4143 12.0001 80.0519 11.6849 80.5175 11.0595L82.1824 12.0485C81.8332 12.6449 81.3373 13.1055 80.6997 13.4304C80.0621 13.7552 79.3384 13.9152 78.5338 13.9152V13.9104Z" fill="white"/>
<path d="M86.3668 13.9089C84.8739 13.9089 84.13 12.8616 84.13 10.7622V7.07253H82.9863V5.29314H84.13V2.55859H86.1289V5.29314H87.8748V7.07253H86.1289V10.8253C86.1289 11.2083 86.1896 11.4847 86.3212 11.6447C86.4477 11.8047 86.6451 11.8871 86.9082 11.8871C87.0904 11.8871 87.3586 11.8483 87.7179 11.7659L88.0671 13.5453C87.4092 13.7877 86.8475 13.9089 86.3718 13.9089H86.3668Z" fill="white"/>
</svg>
